<?xml version="1.0" encoding="UTF-8" standalone="no"?> <svg xmlns="http://www.w3.org/2000/svg" xmlns:xlink="http://www.w3.org/1999/xlink" xmlns:serif="http://www.serif.com/" width="100%" height="100%" viewBox="0 0 103 107" xml:space="preserve" style="fill-rule:evenodd;clip-rule:evenodd;stroke-linejoin:round;stroke-miterlimit:2;"><rect x="24.376" y="32.965" width="72.56" height="73.635" style="fill:#0a0a0a;"></rect><g><path d="M45.517,95.134c-0.717,-0.538 -1.433,-0.896 -2.329,-0.896c-0.717,0 -1.433,0.358 -1.433,1.075c0,0.717 0.895,1.075 1.612,1.254l0.896,0.358c1.971,0.538 3.404,1.434 3.404,3.763c0,1.433 -0.359,2.687 -1.433,3.583c-1.075,0.896 -2.509,1.254 -3.942,1.254c-1.792,0 -3.404,-0.537 -4.837,-1.612l1.433,-2.867c0.896,0.717 1.971,1.433 3.225,1.433c0.896,0 1.791,-0.358 1.791,-1.433c0,-1.075 -1.433,-1.254 -2.149,-1.612c-2.15,-0.717 -3.763,-1.255 -3.763,-3.763c0,-2.687 1.971,-4.658 4.658,-4.658c1.434,0 3.046,0.358 4.3,1.075l-1.433,3.046Z" style="fill:#fff;fill-rule:nonzero;"></path><path d="M53.758,100.509l2.867,-8.779l2.866,0l2.688,8.779l2.508,-8.779l3.762,0l-4.479,13.616l-3.583,0l-2.329,-7.883l-2.687,7.883l-3.584,0l-4.12,-13.616l3.762,0l2.329,8.779Z" style="fill:#fff;fill-rule:nonzero;"></path><rect x="69.345" y="91.73" width="3.583" height="13.616" style="fill:#fff;"></rect><path d="M82.603,95.134c-0.717,-0.538 -1.433,-0.896 -2.329,-0.896c-0.717,0 -1.433,0.358 -1.433,1.075c0,0.717 0.895,1.075 1.612,1.254l0.896,0.358c1.971,0.538 3.404,1.434 3.404,3.763c0,1.433 -0.358,2.687 -1.433,3.583c-1.075,0.896 -2.509,1.254 -3.942,1.254c-1.792,0 -3.404,-0.537 -4.837,-1.612l1.433,-2.867c0.896,0.717 1.971,1.433 3.225,1.433c0.896,0 1.792,-0.358 1.792,-1.433c0,-1.075 -1.434,-1.254 -2.15,-1.612c-2.15,-0.717 -3.763,-1.255 -3.763,-3.763c0,-2.687 1.971,-4.658 4.658,-4.658c1.434,0 3.046,0.358 4.3,1.075l-1.433,3.046Z" style="fill:#fff;fill-rule:nonzero;"></path><path d="M93.711,95.134c-0.717,-0.538 -1.433,-0.896 -2.329,-0.896c-0.717,0 -1.434,0.358 -1.434,1.075c0,0.717 0.896,1.075 1.613,1.254l0.896,0.358c1.97,0.538 3.404,1.434 3.404,3.763c0,1.433 -0.359,2.687 -1.434,3.583c-1.074,0.896 -2.508,1.254 -3.941,1.254c-1.792,0 -3.404,-0.537 -4.837,-1.612l1.433,-2.867c0.896,0.717 1.971,1.433 3.225,1.433c0.896,0 1.791,-0.358 1.791,-1.433c0,-1.075 -1.433,-1.254 -2.15,-1.612c-2.149,-0.717 -3.762,-1.255 -3.762,-3.763c0,-2.687 1.971,-4.658 4.658,-4.658c1.434,0 3.046,0.358 4.3,1.075l-1.433,3.046Z" style="fill:#fff;fill-rule:nonzero;"></path><path d="M53.4,89.401l-15.408,0l0,-44.074l-12.72,0l0,-11.466l41.565,0l0,11.466l-13.437,0l0,44.074Z" style="fill:#fff;fill-rule:nonzero;"></path><path d="M96.577,89.401l-15.945,0l-0.537,-1.075l16.124,0l0.358,1.075Z" style="fill:#fff;fill-rule:nonzero;"></path><path d="M95.682,86.892l-16.125,0l-0.358,-1.254l16.124,0l0.359,1.254Z" style="fill:#fff;fill-rule:nonzero;"></path><path d="M94.786,84.205l-16.125,0l-0.358,-1.075l16.124,0l0.359,1.075Z" style="fill:#fff;fill-rule:nonzero;"></path><path d="M93.89,81.697l-16.124,0l-0.359,-1.254l15.946,0l0.537,1.254Z" style="fill:#fff;fill-rule:nonzero;"></path><path d="M92.815,79.009l-39.953,0l-0.358,-1.075l39.953,0l0.358,1.075Z" style="fill:#fff;fill-rule:nonzero;"></path><path d="M91.919,76.501l-39.236,0l-0.358,-1.254l39.236,0l0.358,1.254Z" style="fill:#fff;fill-rule:nonzero;"></path><path d="M91.023,73.814l-38.161,0l-0.537,-1.075l38.161,0l0.537,1.075Z" style="fill:#fff;fill-rule:nonzero;"></path><path d="M89.948,71.306l-36.906,0l-0.538,-1.255l37.086,0l0.358,1.255Z" style="fill:#fff;fill-rule:nonzero;"></path><path d="M89.053,68.618l-16.125,0l-0.358,-1.075l16.124,0l0.359,1.075Z" style="fill:#fff;fill-rule:nonzero;"></path><path d="M88.157,66.11l-16.124,0l-0.359,-1.254l16.125,0l0.358,1.254Z" style="fill:#fff;fill-rule:nonzero;"></path><path d="M87.261,63.423l-16.124,0l-0.359,-1.075l15.946,0l0.537,1.075Z" style="fill:#fff;fill-rule:nonzero;"></path><path d="M86.186,60.914l-16.124,0l-0.359,-1.254l16.125,0l0.358,1.254Z" style="fill:#fff;fill-rule:nonzero;"></path><path d="M85.29,58.227l-16.124,0l-0.358,-1.075l16.124,0l0.358,1.075Z" style="fill:#fff;fill-rule:nonzero;"></path><path d="M84.395,55.719l-16.125,0l-0.358,-1.254l16.124,0l0.359,1.254Z" style="fill:#fff;fill-rule:nonzero;"></path><path d="M37.992,89.401l15.945,0l0.359,-1.075l-16.304,0l0,1.075Z" style="fill:#fff;fill-rule:nonzero;"></path><path d="M38.709,86.892l16.124,0l0.538,-1.254l-16.125,0l-0.537,1.254Z" style="fill:#fff;fill-rule:nonzero;"></path><path d="M39.784,84.205l16.124,0l0.358,-1.075l-16.124,0l-0.358,1.075Z" style="fill:#fff;fill-rule:nonzero;"></path><path d="M40.68,81.697l16.124,0l0.358,-1.254l-16.124,0l-0.358,1.254Z" style="fill:#fff;fill-rule:nonzero;"></path><path d="M45.338,68.618l16.124,0l0.538,-1.075l-16.125,0l-0.537,1.075Z" style="fill:#fff;fill-rule:nonzero;"></path><path d="M46.413,66.11l15.945,0l0.537,-1.254l-16.124,0l-0.358,1.254Z" style="fill:#fff;fill-rule:nonzero;"></path><path d="M47.308,63.423l16.125,0l0.358,-1.075l-16.124,0l-0.359,1.075Z" style="fill:#fff;fill-rule:nonzero;"></path><path d="M48.204,60.914l16.125,0l0.358,-1.254l-15.945,0l-0.538,1.254Z" style="fill:#fff;fill-rule:nonzero;"></path><path d="M49.279,58.227l15.945,0l0.538,-1.075l-16.124,0l-0.359,1.075Z" style="fill:#fff;fill-rule:nonzero;"></path><path d="M50.175,55.719l16.124,0l0.359,-1.254l-16.125,0l-0.358,1.254Z" style="fill:#fff;fill-rule:nonzero;"></path><path d="M83.32,53.031l-30.816,0l-0.358,-1.075l30.815,0l0.359,1.075Z" style="fill:#fff;fill-rule:nonzero;"></path><path d="M82.424,50.523l-30.995,0l-0.358,-1.075l30.994,0l0.359,1.075Z" style="fill:#fff;fill-rule:nonzero;"></path><path d="M81.528,48.015l-28.307,0l-0.359,-1.254l28.308,0l0.358,1.254Z" style="fill:#fff;fill-rule:nonzero;"></path><path d="M80.632,45.327l-16.124,0l-0.359,-1.075l15.946,0l0.537,1.075Z" style="fill:#fff;fill-rule:nonzero;"></path><path d="M79.557,42.819l-16.124,0l-0.358,-1.254l16.124,0l0.358,1.254Z" style="fill:#fff;fill-rule:nonzero;"></path><path d="M78.661,40.132l-16.124,0l-0.358,-1.075l16.124,0l0.358,1.075Z" style="fill:#fff;fill-rule:nonzero;"></path><path d="M77.766,37.624l-16.125,0l-0.358,-1.255l16.124,0l0.359,1.255Z" style="fill:#fff;fill-rule:nonzero;"></path><path d="M76.691,34.936l-15.946,0l-0.537,-1.075l16.124,0l0.359,1.075Z" style="fill:#fff;fill-rule:nonzero;"></path></g><rect x="5.564" y="0" width="8.958" height="106.6" style="fill:#ff7e00;"></rect></svg> 